<svg height="479pt" viewBox="0 -23 479.78365 479" width="479pt" xmlns="http://www.w3.org/2000/svg"><path d="m404.472656 121.511719c-13.753906-61.785157-66.242187-107.347657-129.351562-112.277344-63.105469-4.925781-122.03125 31.933594-145.210938 90.839844-44.757812-12.65625-92.148437 8.597656-112.46875 50.4375-20.320312 41.839843-7.722656 92.226562 29.894532 119.582031 37.621093 27.355469 89.4375 23.808594 122.976562-8.421875 50.859375 43.765625 125.265625 46.425781 179.121094 6.402344 27.476562 17.503906 62.828125 16.59375 89.371094-2.304688 26.542968-18.894531 38.976562-51.996093 31.433593-83.695312-7.546875-31.695313-33.558593-55.648438-65.765625-60.5625zm0 0" fill="#4891d3"/><path d="m391.910156 120.394531c-27.210937 0-52.554687 13.832031-67.277344 36.71875 31.65625-20.363281 73.226563-15.898437 99.84375 10.714844 26.613282 26.617187 31.078126 68.1875 10.714844 99.84375 29.851563-19.203125 43.480469-55.78125 33.472656-89.835937-10.007812-34.054688-41.257812-57.441407-76.753906-57.441407zm0 0" fill="#57b7eb"/><path d="m363.351562 125.753906c9.105469-3.542968 18.789063-5.359375 28.558594-5.359375 4.214844.003907 8.414063.378907 12.5625 1.117188-12.238281-55.296875-55.757812-98.285157-111.203125-109.847657-55.445312-11.5625-112.515625 10.449219-145.835937 56.25 35.125-25.46875 79.859375-33.742187 121.773437-22.519531 41.910157 11.222657 76.527344 40.746094 94.226563 80.359375zm0 0" fill="#57b7eb"/><path d="m87.910156 128.394531c30.058594.019531 58.371094 14.117188 76.503906 38.09375 18.128907 23.972657 23.984376 55.058594 15.816407 83.984375 23.585937-30.714844 26.40625-72.59375 7.152343-106.195312-19.25-33.601563-56.808593-52.34375-95.234374-47.527344-38.421876 4.816406-70.191407 32.25-80.558594 69.5625 18.128906-23.859375 46.359375-37.882812 76.320312-37.917969zm0 0" fill="#57b7eb"/><path d="m327.910156 168.394531v-48h24l-40-48-40 48h24v48" fill="#c4f236"/><path d="m311.910156 120.394531v-48l-40 48h24v48h32v-12.320312c-10.152344-9.085938-15.972656-22.054688-16-35.679688zm0 0" fill="#a1d51c"/><path d="m223.910156 88.394531v48h24l-40 48-40-48h24v-48" fill="#c4f236"/><path d="m207.910156 136.394531v-48h-16v48h-24l40 48 12.800782-15.441406c-8.210938-8.855469-12.78125-20.484375-12.800782-32.558594zm0 0" fill="#a1d51c"/><path d="m175.910156 264.394531h128c22.09375 0 40 17.90625 40 40v80c0 22.089844-17.90625 40-40 40h-128c-22.089844 0-40-17.910156-40-40v-80c0-22.09375 17.910156-40 40-40zm0 0" fill="#a1d51c"/><path d="m183.910156 264.394531h120c22.09375 0 40 17.90625 40 40h-120c-22.089844 0-40-17.910156-40-40zm0 0" fill="#c4f236"/><path d="m239.910156 392.394531c-35.34375 0-64-28.65625-64-64v-64c-22.089844 0-40 17.90625-40 40v80c0 22.089844 17.910156 40 40 40h128c19.011719 0 35.398438-13.375 39.203125-32zm0 0" fill="#7ab92d"/><path d="m207.910156 376.394531v-64l80 32zm0 0" fill="#f9e109"/><path d="m343.910156 312.394531h32v64h-32zm0 0" fill="#fcbc04"/><path d="m439.910156 400.394531-64-24v-64l64-24zm0 0" fill="#fcbc04"/><path d="m103.910156 304.394531h-40l40 48v32h32v-80zm0 0" fill="#fcbc04"/><path d="m223.910156 240.394531c0 13.253907-10.742187 24-24 24-13.253906 0-24-10.746093-24-24 0-13.257812 10.746094-24 24-24 13.257813 0 24 10.742188 24 24zm0 0" fill="#f9e109"/><path d="m311.910156 232.394531c0 17.671875-14.324218 32-32 32-17.671875 0-32-14.328125-32-32 0-17.675781 14.328125-32 32-32 17.675782 0 32 14.324219 32 32zm0 0" fill="#fcbc04"/><path d="m399.910156 338.234375c.140625 17.753906 11.964844 33.292969 29.042969 38.160156l10.957031 3.117188v-91.117188l-40 15.039063zm0 0" fill="#f9e109"/><path d="m279.910156 216.394531c-6.285156.011719-11.980468 3.703125-14.558594 9.4375 2.058594-.9375 4.296876-1.429687 6.558594-1.4375 8.839844 0 16 7.160157 16 16-.007812 2.261719-.5 4.496094-1.4375 6.558594 6.835938-3.117187 10.585938-10.570313 9.007813-17.917969-1.574219-7.347656-8.054688-12.609375-15.570313-12.640625zm0 0" fill="#e59730"/><path d="m199.910156 232.394531c-4.417968 0-8 3.578125-8 8 4.417969 0 8 3.578125 8 8 4.417969 0 8-3.582031 8-8 0-4.421875-3.582031-8-8-8zm0 0" fill="#fcbc04"/><path d="m87.910156 320.394531c8.839844 0 16 7.160157 16 16v32c8.839844 0 16-7.164062 16-16v-48h-56l13.363282 16zm0 0" fill="#f9e109"/><path d="m271.910156 337.992188-26.238281 10.480468c-6.675781 2.679688-14.242187 1.875-20.207031-2.144531-5.960938-4.023437-9.539063-10.742187-9.554688-17.933594v-12.800781l-8-3.199219v64l80-32zm0 0" fill="#fcbc04"/><g fill="#39519d"><path d="m203.433594 305.753906c-2.207032 1.488282-3.527344 3.976563-3.523438 6.640625v64c-.003906 2.660157 1.316406 5.148438 3.523438 6.636719 1.324218.890625 2.882812 1.363281 4.476562 1.363281 1.015625.011719 2.023438-.175781 2.960938-.5625l80-32c3.054687-1.207031 5.058594-4.15625 5.058594-7.4375 0-3.285156-2.003907-6.234375-5.058594-7.441406l-80-32c-2.457032-.980469-5.246094-.683594-7.4375.800781zm12.476562 18.480469 50.480469 20.160156-50.480469 20.15625zm0 0"/><path d="m444.472656 281.832031c-2.148437-1.507812-4.898437-1.867187-7.359375-.960937l-62.640625 23.523437h-22.5625c-.039062-23.667969-17.324218-43.773437-40.71875-47.363281 11.488282-14.6875 11.300782-35.367188-.453125-49.847656-11.75-14.476563-31.949219-18.914063-48.6875-10.695313s-25.578125 26.914063-21.304687 45.066407c4.269531 18.152343 20.519531 30.945312 39.164062 30.839843h24c17.675782 0 32 14.324219 32 32v80c0 17.671875-14.324218 32-32 32h-128c-17.671875 0-32-14.328125-32-32v-80c0-17.675781 14.328125-32 32-32h24c17.675782 0 32-14.328125 32-32 0-17.675781-14.324218-32-32-32-17.671875 0-32 14.324219-32 32 .085938 5.640625 1.65625 11.160157 4.5625 16-22.09375 1.617188-40.207031 18.144531-43.839844 40h-64.722656c-3.105468-.007812-5.933594 1.785157-7.253906 4.597657s-.890625 6.132812 1.09375 8.519531l38.160156 45.761719v29.121093c0 4.417969 3.582032 8 8 8h24.722656c3.898438 23.074219 23.875 39.972657 47.277344 40h128c26.511719 0 48-21.492187 48-48h22.5625l62.640625 23.519531c.894531.324219 1.84375.488282 2.796875.480469 4.417969 0 8-3.582031 8-8v-112c-.003906-2.621093-1.289062-5.070312-3.4375-6.5625zm-188.5625-49.4375c0-13.257812 10.746094-24 24-24 13.257813 0 24 10.742188 24 24 0 13.253907-10.742187 24-24 24-13.253906 0-24-10.746093-24-24zm-56-8c8.839844 0 16 7.160157 16 16 0 8.835938-7.160156 16-16 16-8.835937 0-16-7.164062-16-16 0-8.839843 7.164063-16 16-16zm-89.839844 122.878907-29.039062-34.878907h46.878906v64h-16v-24c.003906-1.871093-.644531-3.683593-1.839844-5.121093zm321.839844 41.597656-53.199218-20c-.453126-.035156-.90625-.035156-1.359376 0-.449218-.238282-.9375-.398438-1.441406-.476563h-24v-48h16v24c0 4.417969 3.582032 8 8 8 4.417969 0 8-3.582031 8-8v-26.480469l48-18zm0 0"/><path d="m287.910156 232.394531c0 4.417969-3.582031 8-8 8-4.417968 0-8-3.582031-8-8 0-4.421875 3.582032-8 8-8 4.417969 0 8 3.578125 8 8zm0 0"/><path d="m319.910156 112.394531v48c0 4.417969 3.582032 8 8 8 4.417969 0 8-3.582031 8-8v-40h16c3.109375.003907 5.9375-1.789062 7.257813-4.601562 1.320312-2.8125.890625-6.132813-1.097657-8.519531l-40-48c-1.519531-1.835938-3.777343-2.894532-6.160156-2.894532-2.378906 0-4.636718 1.058594-6.160156 2.894532l-40 48c-1.984375 2.386718-2.414062 5.707031-1.09375 8.519531s4.148438 4.605469 7.253906 4.601562h16v24c0 4.417969 3.582032 8 8 8 4.417969 0 8-3.582031 8-8v-32c0-4.421875-3.582031-8-8-8h-6.957031l22.957031-27.523437 22.960938 27.523437h-6.960938c-4.417968 0-8 3.578125-8 8zm0 0"/><path d="m199.910156 128.394531v-48c0-4.421875-3.582031-8-8-8-4.417968 0-8 3.578125-8 8v40h-16c-3.105468-.007812-5.933594 1.785157-7.253906 4.597657s-.890625 6.132812 1.09375 8.519531l40 48c1.523438 1.835937 3.78125 2.898437 6.160156 2.898437 2.382813 0 4.640625-1.0625 6.160156-2.898437l40-48c1.988282-2.386719 2.417969-5.707031 1.097657-8.519531-1.320313-2.8125-4.148438-4.605469-7.257813-4.597657h-16v-24c0-4.421875-3.582031-8-8-8-4.417968 0-8 3.578125-8 8v32c0 4.417969 3.582032 8 8 8h6.882813l-22.882813 27.519531-22.878906-27.519531h6.878906c4.417969 0 8-3.582031 8-8zm0 0"/><path d="m411.113281 114.550781c-17.566406-66.988281-77.949219-113.816406-147.203125-114.15625-60.09375-.195312-114.589844 35.234375-138.796875 90.238281-6.96875-1.496093-14.074219-2.246093-21.203125-2.238281-45.847656.035157-86.261718 30.09375-99.488281 73.996094-13.226563 43.898437 3.855469 91.28125 42.050781 116.640625 1.289063.902344 2.828125 1.378906 4.398438 1.363281 2.707031.011719 5.234375-1.34375 6.71875-3.601562 2.410156-3.671875 1.410156-8.597657-2.238282-11.039063-32.359374-21.441406-46.847656-61.550781-35.664062-98.722656 11.1875-37.167969 45.40625-62.621094 84.222656-62.636719 8.121094-.007812 16.199219 1.125 24 3.359375 3.984375 1.148438 8.1875-.933594 9.679688-4.800781 20.136718-52.21875 70.359375-86.632813 126.320312-86.558594 63.746094.308594 118.824219 44.605469 132.800782 106.796875.714843 3.207032 3.316406 5.648438 6.5625 6.160156 24.832031 4.019532 45.769531 20.714844 55.21875 44.03125 9.453124 23.3125 6.046874 49.871094-8.980469 70.050782-2.652344 3.535156-1.933594 8.546875 1.601562 11.199218 3.53125 2.652344 8.546875 1.933594 11.199219-1.601562 17.828125-23.890625 22.347656-55.183594 12.011719-83.144531-10.339844-27.960938-34.128907-48.785157-63.210938-55.335938zm0 0"/></g></svg>