<svg id="_x31__x2C_5" enable-background="new 0 0 36 36" height="512" viewBox="0 0 36 36" width="512" xmlns="http://www.w3.org/2000/svg"><path d="m27.623 31.833c-6.917 0-11.667 3.583-15 3.583s-10.333-1.916-10.333-17.249 9.417-17.584 13.083-17.584c17.167 0 24.5 31.25 12.25 31.25z" fill="#efefef"/><path d="m17.375 0h1v2h-1z" fill="#a4afc1"/><path d="m19.875 3h2v1h-2z" fill="#a4afc1"/><path d="m14.125 3h2v1h-2z" fill="#a4afc1"/><path d="m27.25 14.75 2 2.75-2 .74-6.75 2.51-2.5-3-2.5 3-6.75-2.51-2-.74 2-2.75-2-2.75 8.289-3.085c.42-.156.893-.014 1.157.349l1.804 2.476-9.25 2.76 9.25 2.75 9.25-2.75-9.25-2.76 1.804-2.477c.264-.363.737-.505 1.157-.349l8.289 3.086z" fill="#2fdf84"/><path d="m27.25 14.5-9.25 2.75-9.25-2.75 9.25-2.76z" fill="#f3f3f1"/><path d="m18 17.75v11.5c-.16 0-.32-.03-.46-.07l-7.42-2.47c-.82-.28-1.37-1.04-1.37-1.9v-6.57l6.75 2.51z" fill="#f3f3f1"/><path d="m27.25 18.24v6.57c0 .86-.55 1.62-1.37 1.9l-7.42 2.47c-.14.04-.3.07-.46.07v-11.5l2.5 3z" fill="#f3f3f1"/><path d="m20.25 17.75-1.125 1.35 1.375 1.65 1.718-.639z" fill="#00b871"/><path d="m20.25 11.74 1.77-2.431-1.059-.394c-.42-.156-.893-.014-1.157.349l-.679.932z" fill="#00b871"/><path d="m27.25 14.5-8.125 2.416 1.125.334 7.25-2.156-.25-.344.551-.757-7.551-2.253-1.125.336z" fill="#00b871"/><path d="m11 18.24-2-.74 1.75-2.406-2-.594 1.699-.507-1.449-1.993 7.23-2.691-.033-.046c-.264-.362-.737-.505-1.157-.349l-8.29 3.086 2 2.75-2 2.75 2 .74 6.75 2.51.532-.639z" fill="#00b871"/><g fill="#d5dbe1"><path d="m11 14.5 8.125-2.424-1.125-.336-9.25 2.76 9.25 2.75 1.125-.334z"/><path d="m17.75 20.75.25-.3v-2.7l-1.968 2.361z"/><path d="m12.37 26.71c-.82-.28-1.37-1.04-1.37-1.9v-5.733l-2.25-.837v6.57c0 .86.55 1.62 1.37 1.9l7.42 2.47c.14.04.3.07.46.07v-.666z"/><path d="m22.75 20.75 4.5-1.673v-.837l-5.032 1.871z"/><path d="m20.25 20.45-2.25-2.7v11.5c.16 0 .32-.03.46-.07l1.79-.596z"/></g><path d="m18 18c-.072 0-.144-.011-.214-.031l-9.25-2.75c-.318-.095-.536-.387-.536-.718 0-.332.217-.625.535-.72l4.55-1.36.43 1.438-2.14.64 6.625 1.969 6.625-1.97-2.14-.64.43-1.438 4.55 1.36c.318.096.535.389.535.721 0 .331-.218.623-.536.718l-9.25 2.75c-.07.02-.142.031-.214.031z"/><path d="m17.25 17.75h1.5v11.5h-1.5z"/><path d="m15.5 21.5c-.087 0-.176-.016-.261-.047l-8.75-3.25c-.22-.082-.389-.262-.457-.486-.068-.225-.027-.468.111-.658l2-2.75 1.213.883-1.418 1.95 7.325 2.721 2.16-2.593 1.152.961-2.5 3c-.144.173-.357.269-.575.269z"/><path d="m20.5 21.5c-.218 0-.431-.096-.576-.27l-2.5-3 1.152-.961 2.16 2.593 7.325-2.721-1.418-1.95 1.213-.883 2 2.75c.138.19.179.434.111.658-.067.225-.237.404-.457.486l-8.75 3.25c-.084.032-.173.048-.26.048z"/><path d="m8.144 15.191-2-2.75c-.138-.19-.179-.434-.112-.658.068-.225.237-.404.457-.486l5.99-2.23.523 1.406-5.064 1.886 1.418 1.95z"/><path d="m27.856 15.191-1.213-.883 1.418-1.95-5.064-1.886.523-1.406 5.99 2.23c.22.082.389.262.457.486.067.225.026.468-.112.658z"/><path d="m17.25 6.75h1.5v6.001h-1.5z"/><path d="m18 14c-.192 0-.384-.073-.53-.22l-2.781-2.78 1.061-1.061 2.25 2.25 2.25-2.25 1.061 1.061-2.78 2.78c-.147.147-.339.22-.531.22z"/><path d="m18 30c-.236 0-.469-.036-.692-.108l-7.427-2.474c-1.126-.376-1.881-1.424-1.881-2.609v-6.309h1.5v6.309c0 .539.344 1.016.855 1.187l7.419 2.471c.135.043.31.045.459-.002l7.412-2.47c.511-.17.854-.646.854-1.186v-6.309h1.501v6.309c0 1.186-.755 2.233-1.88 2.608l-7.42 2.473c-.231.074-.464.11-.7.11z"/></svg>