<svg width="1075" height="585" viewBox="0 0 1075 585" fill="none" xmlns="http://www.w3.org/2000/svg">
<g id="404 1" clip-path="url(#clip0)">
<path id="Vector" d="M540.643 584.231C831.974 584.231 1068.14 568.596 1068.14 549.309C1068.14 530.023 831.974 514.388 540.643 514.388C249.313 514.388 13.1434 530.023 13.1434 549.309C13.1434 568.596 249.313 584.231 540.643 584.231Z" fill="#F2F2F2"/>
<path id="Vector_2" d="M321.311 433.517H285.777V328.877C285.777 323.32 283.569 317.989 279.639 314.059C275.709 310.129 270.379 307.922 264.821 307.922H256.495C253.743 307.922 251.018 308.464 248.475 309.517C245.933 310.57 243.623 312.113 241.677 314.059C239.731 316.005 238.187 318.315 237.134 320.858C236.081 323.4 235.539 326.125 235.539 328.877V433.517H135.309C133.247 433.517 131.22 432.984 129.425 431.97C127.629 430.955 126.127 429.494 125.062 427.728C123.998 425.962 123.408 423.951 123.35 421.89C123.292 419.829 123.768 417.788 124.731 415.965L230.814 215.184C232.136 212.681 232.938 209.936 233.17 207.114C233.402 204.293 233.061 201.453 232.165 198.768C231.27 196.082 229.84 193.605 227.961 191.487C226.082 189.37 223.793 187.654 221.233 186.446L214.971 183.488C210.108 181.192 204.549 180.853 199.444 182.541C194.338 184.23 190.077 187.816 187.542 192.558L58.1602 434.591C55.957 438.712 54.8043 443.314 54.8043 447.987V447.987C54.8043 451.719 55.5393 455.414 56.9673 458.861C58.3954 462.309 60.4885 465.441 63.1271 468.08C65.7658 470.719 68.8983 472.812 72.3459 474.24C75.7935 475.668 79.4885 476.403 83.2202 476.403H235.539V542.57C235.539 545.869 236.189 549.135 237.451 552.183C238.713 555.23 240.564 557.999 242.896 560.332C245.229 562.664 247.998 564.515 251.045 565.777C254.093 567.039 257.359 567.689 260.658 567.689H260.658C263.957 567.689 267.223 567.039 270.271 565.777C273.318 564.515 276.087 562.664 278.42 560.332C280.752 557.999 282.603 555.23 283.865 552.183C285.127 549.135 285.777 545.869 285.777 542.57V476.403H321.311C326.998 476.403 332.452 474.144 336.474 470.122C340.495 466.101 342.754 460.647 342.754 454.96V454.96C342.754 449.273 340.495 443.819 336.474 439.797C332.453 435.776 326.998 433.517 321.311 433.517V433.517Z" fill="#4F97C7"/>
<path id="Vector_3" d="M979.308 433.517H943.773V328.877C943.773 323.32 941.566 317.989 937.636 314.059C933.706 310.129 928.375 307.922 922.818 307.922H914.491C911.739 307.922 909.014 308.464 906.472 309.517C903.929 310.57 901.619 312.113 899.673 314.059C897.727 316.005 896.184 318.315 895.131 320.858C894.077 323.4 893.535 326.125 893.535 328.877V433.517H793.305C791.243 433.517 789.216 432.984 787.421 431.97C785.626 430.955 784.123 429.494 783.059 427.728C781.995 425.962 781.405 423.951 781.347 421.89C781.289 419.829 781.764 417.788 782.728 415.965L888.81 215.184C890.133 212.681 890.934 209.936 891.167 207.114C891.399 204.293 891.057 201.453 890.162 198.768C889.266 196.082 887.836 193.605 885.957 191.487C884.078 189.37 881.79 187.654 879.23 186.446L872.967 183.488C868.105 181.192 862.546 180.853 857.44 182.541C852.334 184.23 848.073 187.816 845.538 192.558L716.157 434.591C713.953 438.712 712.801 443.314 712.801 447.987V447.987C712.801 455.523 715.795 462.751 721.124 468.08C726.453 473.409 733.68 476.403 741.217 476.403H893.535V542.57C893.535 549.232 896.182 555.621 900.893 560.332C905.603 565.043 911.992 567.689 918.654 567.689V567.689C925.316 567.689 931.705 565.043 936.416 560.332C941.127 555.621 943.773 549.232 943.773 542.57V476.403H979.308C984.995 476.403 990.449 474.144 994.47 470.122C998.492 466.101 1000.75 460.647 1000.75 454.96V454.96C1000.75 449.273 998.492 443.819 994.47 439.797C990.449 435.776 984.995 433.517 979.308 433.517Z" fill="#4F97C7"/>
<path id="Vector_4" d="M331.114 421.264H295.58V316.624C295.58 313.872 295.038 311.147 293.984 308.605C292.931 306.062 291.388 303.752 289.442 301.806C287.496 299.86 285.186 298.317 282.643 297.263C280.101 296.21 277.376 295.668 274.624 295.668H266.297C260.74 295.668 255.409 297.876 251.479 301.806C247.549 305.736 245.342 311.066 245.342 316.624V421.264H145.111C143.05 421.264 141.023 420.731 139.227 419.716C137.432 418.702 135.929 417.241 134.865 415.475C133.801 413.709 133.211 411.698 133.153 409.637C133.095 407.576 133.571 405.535 134.534 403.712L240.616 202.931C241.939 200.428 242.74 197.683 242.973 194.861C243.205 192.04 242.863 189.2 241.968 186.514C241.073 183.828 239.642 181.352 237.763 179.234C235.884 177.116 233.596 175.401 231.036 174.192L224.774 171.235C219.911 168.939 214.352 168.6 209.246 170.288C204.141 171.976 199.879 175.563 197.344 180.305L67.9628 422.338C65.7596 426.459 64.6069 431.06 64.6069 435.734V435.734C64.6069 443.27 67.6007 450.498 72.9297 455.827C78.2587 461.156 85.4864 464.15 93.0228 464.15H245.342V530.317C245.342 533.616 245.991 536.882 247.254 539.93C248.516 542.977 250.366 545.746 252.699 548.079C255.031 550.411 257.8 552.262 260.848 553.524C263.895 554.786 267.162 555.436 270.461 555.436H270.461C277.123 555.436 283.512 552.789 288.222 548.079C292.933 543.368 295.58 536.979 295.58 530.317V464.15H331.114C333.93 464.15 336.718 463.595 339.32 462.517C341.921 461.44 344.285 459.86 346.276 457.869C348.268 455.878 349.847 453.514 350.925 450.913C352.002 448.311 352.557 445.523 352.557 442.707V442.707C352.557 439.891 352.002 437.102 350.925 434.501C349.847 431.899 348.268 429.535 346.276 427.544C344.285 425.553 341.921 423.973 339.32 422.896C336.718 421.818 333.93 421.264 331.114 421.264V421.264Z" stroke="#3F3D56" stroke-miterlimit="10"/>
<path id="Vector_5" d="M997.688 421.264H962.153V316.624C962.153 311.066 959.946 305.736 956.016 301.806C952.086 297.876 946.755 295.668 941.198 295.668H932.871C930.119 295.668 927.394 296.21 924.852 297.263C922.309 298.317 919.999 299.86 918.053 301.806C916.107 303.752 914.564 306.062 913.51 308.605C912.457 311.147 911.915 313.872 911.915 316.624V421.264H811.685C809.623 421.264 807.596 420.731 805.801 419.716C804.006 418.702 802.503 417.241 801.439 415.475C800.374 413.709 799.785 411.698 799.727 409.637C799.669 407.576 800.144 405.535 801.108 403.712L907.19 202.931C908.513 200.428 909.314 197.683 909.547 194.861C909.779 192.04 909.437 189.2 908.542 186.514C907.646 183.828 906.216 181.352 904.337 179.234C902.458 177.116 900.17 175.401 897.61 174.192L891.347 171.235C886.485 168.939 880.925 168.6 875.82 170.288C870.714 171.976 866.453 175.563 863.918 180.305L734.536 422.338C732.333 426.459 731.181 431.06 731.181 435.734C731.181 443.27 734.174 450.498 739.503 455.827C744.832 461.156 752.06 464.15 759.596 464.15H911.915V530.317C911.915 536.979 914.562 543.368 919.272 548.079C923.983 552.789 930.372 555.436 937.034 555.436V555.436C943.696 555.436 950.085 552.789 954.796 548.079C959.507 543.368 962.153 536.979 962.153 530.317V464.15H997.688C1000.5 464.15 1003.29 463.595 1005.89 462.517C1008.5 461.44 1010.86 459.86 1012.85 457.869C1014.84 455.878 1016.42 453.514 1017.5 450.913C1018.58 448.311 1019.13 445.523 1019.13 442.707V442.707C1019.13 437.02 1016.87 431.565 1012.85 427.544C1008.83 423.523 1003.37 421.264 997.688 421.264V421.264Z" stroke="#3F3D56" stroke-miterlimit="10"/>
<path id="Vector_6" d="M1006.86 419.55C1009.89 420.651 1013.14 421.033 1016.34 420.667C1019.54 420.301 1022.62 419.196 1025.32 417.439C1028.02 415.683 1030.28 413.322 1031.91 410.544C1033.55 407.766 1034.51 404.647 1034.74 401.431C1034.96 398.216 1034.43 394.992 1033.2 392.015C1031.96 389.038 1030.05 386.388 1027.62 384.275C1025.19 382.161 1022.3 380.642 1019.17 379.837C1016.05 379.032 1012.79 378.962 1009.64 379.634L1010.16 390.347L1005.09 381.166C1000.11 383.503 996.271 387.72 994.405 392.889C993.742 394.699 993.338 396.595 993.207 398.519C992.887 403.032 994.048 407.527 996.512 411.322C998.976 415.117 1002.61 418.006 1006.86 419.55V419.55Z" fill="#57B894"/>
<path id="Vector_7" d="M1031.94 543.793C1030.15 534.683 1037.9 526.606 1045.56 521.357C1053.22 516.107 1062.17 510.949 1064.78 502.04C1068.53 489.236 1057.35 477.51 1048.64 467.398C1042.19 459.894 1036.64 451.651 1032.12 442.841C1030.31 439.308 1028.65 435.615 1028.17 431.674C1027.48 425.999 1029.31 420.351 1031.14 414.938C1037.26 396.903 1043.8 379.02 1050.77 361.288" stroke="#3F3D56" stroke-miterlimit="10"/>
<path id="Vector_8" d="M1007.72 416.792C1010.75 417.893 1013.99 418.276 1017.2 417.909C1020.4 417.543 1023.47 416.438 1026.17 414.682C1028.88 412.925 1031.13 410.564 1032.77 407.786C1034.4 405.008 1035.37 401.889 1035.59 398.673C1035.82 395.458 1035.29 392.234 1034.06 389.257C1032.82 386.28 1030.91 383.63 1028.48 381.517C1026.04 379.403 1023.15 377.884 1020.03 377.079C1016.91 376.274 1013.64 376.204 1010.49 376.876L1011.01 387.589L1005.95 378.408C1000.97 380.745 997.129 384.962 995.262 390.131C994.599 391.941 994.196 393.837 994.065 395.761C993.745 400.274 994.905 404.769 997.369 408.564C999.833 412.359 1003.47 415.248 1007.72 416.792V416.792Z" stroke="#3F3D56" stroke-miterlimit="10"/>
<path id="Vector_9" d="M1029.4 357.588C1030.59 354.308 1032.58 351.38 1035.2 349.073C1037.82 346.767 1040.97 345.157 1044.38 344.391L1046.09 354.574L1049.27 343.879C1053.68 343.944 1057.96 345.41 1061.48 348.064C1065 350.718 1067.59 354.423 1068.87 358.645C1070.15 362.866 1070.06 367.386 1068.6 371.551C1067.15 375.715 1064.41 379.31 1060.78 381.815C1057.15 384.32 1052.81 385.607 1048.4 385.489C1043.99 385.371 1039.73 383.854 1036.24 381.158C1032.75 378.462 1030.21 374.726 1028.98 370.49C1027.74 366.253 1027.89 361.735 1029.4 357.588H1029.4Z" fill="#57B894"/>
<path id="Vector_10" d="M1030.54 353.911C1031.73 350.631 1033.72 347.703 1036.34 345.396C1038.96 343.09 1042.12 341.479 1045.52 340.713L1047.23 350.897L1050.41 340.201C1054.82 340.267 1059.1 341.732 1062.62 344.387C1066.15 347.041 1068.74 350.746 1070.02 354.968C1071.3 359.189 1071.2 363.709 1069.75 367.873C1068.29 372.038 1065.55 375.633 1061.92 378.138C1058.29 380.643 1053.96 381.93 1049.55 381.812C1045.14 381.694 1040.88 380.177 1037.38 377.481C1033.89 374.785 1031.35 371.049 1030.12 366.813C1028.89 362.576 1029.04 358.058 1030.54 353.911H1030.54Z" stroke="#3F3D56" stroke-miterlimit="10"/>
<path id="Vector_11" d="M1044.99 467.604C1049.8 469.347 1055.07 469.261 1059.82 467.363C1064.56 465.464 1068.44 461.886 1070.72 457.311C1072.99 452.736 1073.51 447.482 1072.16 442.553C1070.81 437.623 1067.7 433.362 1063.41 430.582L1060.97 438.801L1059.24 428.497C1059.22 428.489 1059.2 428.482 1059.18 428.477C1056.62 427.543 1053.89 427.125 1051.16 427.246C1048.42 427.367 1045.74 428.025 1043.27 429.182C1040.79 430.339 1038.56 431.973 1036.72 433.991C1034.87 436.008 1033.44 438.369 1032.51 440.94C1031.58 443.51 1031.16 446.238 1031.29 448.97C1031.41 451.701 1032.07 454.381 1033.23 456.857C1034.39 459.334 1036.02 461.557 1038.04 463.401C1040.06 465.245 1042.42 466.674 1044.99 467.604H1044.99Z" fill="#57B894"/>
<path id="Vector_12" d="M1045.98 463.88C1050.79 465.622 1056.06 465.536 1060.81 463.638C1065.55 461.74 1069.43 458.162 1071.71 453.586C1073.99 449.011 1074.5 443.758 1073.15 438.828C1071.8 433.899 1068.69 429.638 1064.4 426.857L1061.96 435.076L1060.23 424.772C1060.21 424.764 1060.19 424.758 1060.17 424.752C1057.61 423.818 1054.88 423.4 1052.15 423.521C1049.41 423.642 1046.73 424.3 1044.26 425.457C1041.78 426.615 1039.55 428.249 1037.71 430.266C1035.86 432.284 1034.43 434.645 1033.5 437.215C1032.57 439.785 1032.15 442.514 1032.28 445.245C1032.4 447.976 1033.06 450.656 1034.22 453.133C1035.38 455.609 1037.01 457.833 1039.03 459.677C1041.05 461.521 1043.41 462.949 1045.98 463.88H1045.98Z" stroke="#3F3D56" stroke-miterlimit="10"/>
<path id="Vector_13" d="M1023.32 502.167C1024.15 506.867 1026.57 511.14 1030.17 514.27C1033.77 517.4 1038.34 519.195 1043.11 519.356C1047.88 519.517 1052.56 518.032 1056.37 515.152C1060.17 512.272 1062.87 508.171 1064.01 503.537C1065.15 498.903 1064.66 494.018 1062.63 489.701C1060.59 485.384 1057.14 481.897 1052.84 479.826C1048.54 477.755 1043.66 477.225 1039.02 478.326C1034.37 479.426 1030.25 482.089 1027.33 485.87L1036.61 499.826L1023.94 492.418C1022.95 495.572 1022.74 498.915 1023.32 502.167V502.167Z" fill="#57B894"/>
<path id="Vector_14" d="M1024.18 499.409C1025.01 504.109 1027.42 508.382 1031.03 511.512C1034.63 514.642 1039.2 516.437 1043.97 516.598C1048.74 516.759 1053.42 515.274 1057.22 512.394C1061.03 509.514 1063.73 505.413 1064.87 500.779C1066.01 496.145 1065.52 491.26 1063.49 486.943C1061.45 482.626 1058 479.139 1053.7 477.068C1049.4 474.997 1044.52 474.467 1039.87 475.568C1035.23 476.668 1031.1 479.332 1028.19 483.112L1037.46 497.068L1024.79 489.661C1023.81 492.814 1023.6 496.157 1024.18 499.409V499.409Z" stroke="#3F3D56" stroke-miterlimit="10"/>
<path id="Vector_15" d="M9.00746 470.249C10.9978 470.972 13.1289 471.224 15.2329 470.983C17.337 470.743 19.3563 470.017 21.1319 468.862C22.9075 467.708 24.3908 466.157 25.4648 464.332C26.5388 462.507 27.1742 460.457 27.3208 458.345C27.4675 456.232 27.1215 454.114 26.3101 452.158C25.4987 450.202 24.244 448.461 22.645 447.073C21.0459 445.684 19.1463 444.686 17.0957 444.157C15.0451 443.628 12.8997 443.582 10.8285 444.024L11.1707 451.062L7.84085 445.03C4.57278 446.566 2.04805 449.336 0.821494 452.732C0.385892 453.922 0.121078 455.167 0.034953 456.431C-0.17523 459.397 0.586979 462.35 2.20607 464.843C3.82517 467.337 6.2129 469.234 9.00746 470.249V470.249Z" fill="#57B894"/>
<path id="Vector_16" d="M25.4837 551.879C24.3083 545.893 29.4017 540.587 34.4329 537.138C39.464 533.688 45.3427 530.3 47.0593 524.446C49.5264 516.034 42.1776 508.33 36.4579 501.686C32.2144 496.756 28.5702 491.34 25.6016 485.551C24.311 483.278 23.4319 480.794 23.0049 478.215C22.5539 474.486 23.7519 470.775 24.9588 467.219C28.9794 455.37 33.2782 443.62 37.8551 431.969" stroke="#3F3D56" stroke-miterlimit="10"/>
<path id="Vector_17" d="M9.57058 468.437C11.5609 469.16 13.692 469.412 15.796 469.171C17.9001 468.931 19.9195 468.205 21.695 467.05C23.4706 465.896 24.9539 464.345 26.0279 462.52C27.1018 460.695 27.7372 458.645 27.8839 456.533C28.0306 454.42 27.6846 452.302 26.8732 450.346C26.0618 448.39 24.8071 446.649 23.2081 445.261C21.609 443.872 19.7094 442.874 17.6588 442.345C15.6082 441.816 13.4628 441.77 11.3916 442.212L11.7338 449.25L8.40397 443.218C5.13589 444.754 2.61116 447.524 1.3846 450.92C0.949008 452.11 0.684198 453.355 0.598068 454.619C0.387871 457.585 1.15007 460.538 2.76917 463.031C4.38827 465.525 6.77601 467.422 9.57058 468.437V468.437Z" stroke="#3F3D56" stroke-miterlimit="10"/>
<path id="Vector_18" d="M23.8124 429.539C24.5935 427.384 25.9044 425.46 27.6244 423.945C29.3444 422.429 31.4181 421.371 33.6545 420.868L34.7803 427.559L36.8677 420.531C39.7659 420.574 42.5754 421.537 44.8907 423.281C47.206 425.025 48.9071 427.459 49.7486 430.233C50.5901 433.007 50.5283 435.976 49.5723 438.712C48.6162 441.449 46.8152 443.81 44.4295 445.456C42.0437 447.102 39.1966 447.948 36.2991 447.87C33.4016 447.793 30.6038 446.796 28.3095 445.025C26.0152 443.254 24.3432 440.799 23.5349 438.016C22.7265 435.232 22.8237 432.264 23.8124 429.539V429.539Z" fill="#57B894"/>
<path id="Vector_19" d="M24.5632 427.123C25.3443 424.968 26.6552 423.044 28.3752 421.529C30.0952 420.013 32.169 418.955 34.4053 418.452L35.5312 425.143L37.6186 418.115C40.5168 418.158 43.3263 419.121 45.6415 420.865C47.9568 422.609 49.658 425.043 50.4995 427.817C51.3409 430.591 51.2792 433.56 50.3231 436.296C49.367 439.033 47.5661 441.394 45.1803 443.04C42.7946 444.686 39.9474 445.532 37.0499 445.454C34.1525 445.377 31.3546 444.38 29.0603 442.609C26.7661 440.838 25.094 438.383 24.2857 435.599C23.4774 432.816 23.5746 429.848 24.5632 427.123V427.123Z" stroke="#3F3D56" stroke-miterlimit="10"/>
<path id="Vector_20" d="M34.0576 501.822C37.214 502.967 40.6813 502.91 43.7987 501.663C46.9162 500.416 49.4656 498.065 50.9612 495.059C52.4568 492.052 52.7939 488.601 51.9083 485.362C51.0227 482.124 48.9763 479.324 46.1592 477.497L44.5553 482.897L43.418 476.127C43.4067 476.122 43.3951 476.118 43.3832 476.114C41.6948 475.5 39.9021 475.225 38.1073 475.304C36.3126 475.384 34.551 475.816 32.9234 476.576C31.2957 477.336 29.8338 478.41 28.6213 479.736C27.4088 481.061 26.4693 482.613 25.8567 484.302C25.2441 485.99 24.9703 487.783 25.0509 489.578C25.1315 491.373 25.565 493.134 26.3266 494.761C27.0882 496.388 28.163 497.849 29.4895 499.061C30.816 500.272 32.3683 501.21 34.0576 501.822V501.822Z" fill="#57B894"/>
<path id="Vector_21" d="M34.7081 499.374C37.8645 500.519 41.3319 500.463 44.4493 499.216C47.5667 497.968 50.1162 495.618 51.6118 492.611C53.1074 489.605 53.4445 486.154 52.5589 482.915C51.6733 479.676 49.6269 476.877 46.8098 475.05L45.2059 480.45L44.0685 473.68C44.0573 473.675 44.0457 473.671 44.0337 473.667C42.3458 473.055 40.5537 472.781 38.7599 472.861C36.9661 472.941 35.2057 473.374 33.5791 474.135C30.2941 475.671 27.7539 478.449 26.5172 481.858C25.2806 485.267 25.4488 489.028 26.9849 492.313C28.521 495.598 31.2991 498.138 34.7081 499.374V499.374Z" stroke="#3F3D56" stroke-miterlimit="10"/>
<path id="Vector_22" d="M19.822 524.53C20.3647 527.618 21.9528 530.426 24.3198 532.482C26.6868 534.538 29.6889 535.718 32.8226 535.823C35.9562 535.929 39.0309 534.954 41.5309 533.061C44.0309 531.169 45.8042 528.475 46.5535 525.43C47.3027 522.385 46.9823 519.176 45.6459 516.339C44.3096 513.503 42.0386 511.212 39.2139 509.852C36.3891 508.491 33.1823 508.143 30.1314 508.866C27.0804 509.589 24.3708 511.339 22.457 513.822L28.5493 522.992L20.2249 518.125C19.5795 520.197 19.4413 522.393 19.822 524.53V524.53Z" fill="#57B894"/>
<path id="Vector_23" d="M20.3851 522.718C20.9278 525.806 22.5159 528.613 24.8829 530.67C27.25 532.726 30.252 533.906 33.3857 534.011C36.5194 534.117 39.594 533.142 42.094 531.249C44.594 529.357 46.3673 526.663 47.1166 523.618C47.8658 520.573 47.5454 517.364 46.2091 514.527C44.8727 511.691 42.6017 509.4 39.777 508.039C36.9522 506.679 33.7454 506.331 30.6945 507.054C27.6435 507.777 24.9339 509.527 23.0201 512.01L29.1124 521.18L20.788 516.313C20.1426 518.385 20.0044 520.581 20.3851 522.718V522.718Z" stroke="#3F3D56" stroke-miterlimit="10"/>
<g id="ZeroAndGirl">
<path id="Vector_24" d="M520.426 168.01C434.482 168.01 372.775 223.149 372.775 351.808C372.775 497.621 434.482 536.218 520.426 536.218C606.37 536.218 671.753 493.945 671.753 351.808C671.753 199.868 606.37 168.01 520.426 168.01ZM520.991 487.818C461.464 487.818 430.365 452.895 430.365 351.902C430.365 262.79 462.737 215.797 522.264 215.797C581.791 215.797 614.163 246.665 614.163 351.902C614.163 450.349 580.517 487.818 520.991 487.818Z" fill="#2F2E41"/>
<path id="Vector_25" d="M540.031 156.982C454.087 156.982 392.38 212.121 392.38 340.78C392.38 486.593 454.087 525.19 540.031 525.19C625.975 525.19 691.358 482.917 691.358 340.78C691.358 188.84 625.975 156.982 540.031 156.982ZM540.596 476.79C481.069 476.79 449.97 441.867 449.97 340.874C449.97 251.762 482.342 204.769 541.869 204.769C601.396 204.769 633.768 235.637 633.768 340.874C633.768 439.321 600.123 476.79 540.596 476.79V476.79Z" stroke="#3F3D56" stroke-miterlimit="10"/>
<path id="Vector_26" d="M471.141 32.1516C478.266 32.1516 484.042 26.3755 484.042 19.2504C484.042 12.1253 478.266 6.34924 471.141 6.34924C464.016 6.34924 458.24 12.1253 458.24 19.2504C458.24 26.3755 464.016 32.1516 471.141 32.1516Z" fill="#2F2E41"/>
<path id="Vector_27" d="M502.607 94.7695C522.592 94.7695 538.794 73.7785 538.794 47.8848C538.794 21.991 522.592 1 502.607 1C482.622 1 466.421 21.991 466.421 47.8848C466.421 73.7785 482.622 94.7695 502.607 94.7695Z" fill="#2F2E41"/>
<path id="Vector_28" opacity="0.1" d="M502.607 80.6097C484.48 80.6097 469.466 63.3392 466.832 40.8049C466.558 43.1549 466.42 45.5188 466.421 47.8848C466.421 73.7785 482.622 94.7695 502.607 94.7695C522.592 94.7695 538.794 73.7785 538.794 47.8848C538.794 45.5188 538.657 43.1549 538.383 40.8049C535.749 63.3392 520.735 80.6097 502.607 80.6097Z" fill="black"/>
<path id="Vector_29" d="M576.242 185.189C575.465 188.382 572.114 190.94 568.403 192.727C560.602 196.483 550.978 197.605 541.644 197.981C539.262 198.126 536.873 198.081 534.499 197.849C529.898 197.404 525.582 195.42 522.249 192.217C522.011 192.062 521.816 191.849 521.683 191.599C521.549 191.348 521.481 191.067 521.486 190.783C521.49 190.499 521.566 190.221 521.707 189.975C521.849 189.728 522.05 189.521 522.292 189.374C527.262 183.915 535.555 180.567 543.909 178.157C550.243 176.33 561.29 171.597 568.199 172.235C574.89 172.854 577.223 181.157 576.242 185.189Z" fill="#3F3D56"/>
<path id="Vector_30" opacity="0.1" d="M576.242 185.189C575.465 188.382 572.114 190.94 568.403 192.727C560.602 196.483 550.978 197.605 541.644 197.981C539.262 198.126 536.873 198.081 534.499 197.849C529.898 197.404 525.582 195.42 522.249 192.217C522.011 192.062 521.816 191.849 521.683 191.599C521.549 191.348 521.481 191.067 521.486 190.783C521.49 190.499 521.566 190.221 521.707 189.975C521.849 189.728 522.05 189.521 522.292 189.374C527.262 183.915 535.555 180.567 543.909 178.157C550.243 176.33 561.29 171.597 568.199 172.235C574.89 172.854 577.223 181.157 576.242 185.189Z" fill="black"/>
<path id="Vector_31" d="M477.044 161.321C474.662 165.989 474.231 171.411 475.845 176.396C477.487 181.344 480.56 185.693 484.674 188.893C494.769 196.985 508.662 198.098 521.599 197.986C532.937 197.887 544.259 197.111 555.505 195.662C559.273 195.328 562.976 194.468 566.506 193.108C570.728 191.281 574.439 187.93 575.942 183.582C577.445 179.234 576.378 173.909 572.808 171.008C569.671 168.458 565.345 168.107 561.31 167.865L538.223 166.477C540.504 164.169 543.541 162.863 546.319 161.185C550.004 158.959 552.452 155.22 555.132 151.85C559.26 146.916 563.752 142.297 568.57 138.033C569.322 142.344 572.048 145.883 575.258 148.857C578.467 151.831 582.166 154.226 585.502 157.057C593.58 163.916 599.397 173.224 607.894 179.558C613.738 178.022 619.202 175.294 623.942 171.546L620.64 165.564C620.365 164.949 619.937 164.414 619.396 164.011C618.461 163.436 617.256 163.733 616.171 163.57C613.27 163.135 612.003 159.786 610.865 157.083C607.74 149.661 601.757 143.903 596.647 137.679C592.875 133.084 589.53 128.157 586.651 122.956C584.934 119.854 583.363 116.625 581.034 113.953C578.704 111.281 575.44 109.18 571.895 109.172C568.763 109.166 565.874 110.756 563.181 112.355C554.979 117.227 547.087 122.604 539.551 128.454C535.607 131.516 531.688 134.751 527.061 136.628C525.114 137.419 523.061 137.959 521.192 138.92C517.919 140.605 515.435 143.455 512.761 145.985C503.223 155.008 490.165 160.854 477.044 161.321Z" fill="#3F3D56"/>
<path id="Vector_32" d="M525.32 97.098C525.213 99.8562 524.626 102.575 523.586 105.131C523.059 106.407 522.275 107.56 521.282 108.518C520.29 109.477 519.111 110.221 517.818 110.704C515.983 111.196 514.059 111.258 512.195 110.887C510.57 110.717 509.004 110.183 507.614 109.326C505.449 107.837 504.37 105.182 503.976 102.583C503.583 99.9866 503.759 97.334 503.507 94.7192C503.262 92.6071 502.86 90.5162 502.305 88.4637C502.135 87.7809 501.962 87.1012 501.792 86.4215C501.626 85.7419 501.462 85.0622 501.311 84.3825C501.173 83.7438 501.044 83.1018 500.933 82.4568C500.842 81.9124 500.76 81.3649 500.701 80.8142C500.645 79.1817 500.374 77.5638 499.892 76.0031C499.44 74.9908 498.874 74.0333 498.205 73.1491C497.919 72.74 497.642 72.3309 497.387 71.9061C496.65 70.8022 496.307 69.4816 496.415 68.1585C496.445 67.954 496.495 67.7527 496.563 67.5575C496.588 67.482 496.616 67.4065 496.648 67.3341C496.931 67.2573 497.191 67.1125 497.405 66.9123C497.62 66.7121 497.782 66.4627 497.878 66.1855C497.986 65.5902 497.935 64.9769 497.73 64.4077C497.495 63.6123 497.173 62.8451 496.771 62.1201C496.506 61.6418 495.609 60.7796 495.603 60.2321C495.59 59.1308 497.743 58.2434 498.614 57.8092C501.275 56.4769 504.242 55.8753 507.211 56.0659C509.115 56.1949 511.179 56.7802 512.23 58.3756C513.174 59.8136 513.048 61.6764 513.451 63.3473C513.493 63.5901 513.596 63.8184 513.75 64.0112C513.955 64.1983 514.213 64.317 514.489 64.351C514.955 64.4437 515.433 64.4629 515.905 64.4077H515.908C516.033 64.3978 516.157 64.3799 516.28 64.3542C517.015 64.2185 517.71 63.9184 518.312 63.4763C518.703 63.3724 519.096 63.2874 519.492 63.2214C519.508 63.2197 519.524 63.2166 519.54 63.2119C521.116 68.1867 521.321 73.5203 522.611 78.5864C523.249 81.1068 524.165 83.5958 524.294 86.1886C524.304 86.3019 524.307 86.4183 524.31 86.5347C524.329 87.3686 524.263 88.2087 524.297 89.0395C524.309 89.4135 524.351 89.786 524.423 90.1533C524.564 90.7442 524.74 91.3262 524.949 91.8966L524.958 91.9249C525.018 92.1074 525.074 92.2931 525.122 92.4787C525.156 92.614 525.188 92.7462 525.213 92.8815L525.216 92.8909C525.449 94.2814 525.484 95.6978 525.32 97.098V97.098Z" fill="#FBBEBE"/>
<path id="Vector_33" d="M503.237 64.5619C513.49 64.5619 521.802 56.25 521.802 45.9968C521.802 35.7435 513.49 27.4316 503.237 27.4316C492.984 27.4316 484.672 35.7435 484.672 45.9968C484.672 56.25 492.984 64.5619 503.237 64.5619Z" fill="#FBBEBE"/>
<path id="Vector_34" d="M621.103 147.148C620.565 142.083 618.765 137.234 615.867 133.045C616.349 135.909 616.831 138.771 617.315 141.632C616.714 141.806 616.075 141.801 615.477 141.617C614.879 141.433 614.347 141.079 613.948 140.597C613.166 139.621 612.568 138.511 612.182 137.321C610.073 132.085 607.315 127.135 603.973 122.586C592.154 121.601 580.471 116.702 570.077 110.99C559.681 105.282 549.952 98.4385 539.694 92.4882C537.915 91.4132 536.063 90.4668 534.149 89.6562C530.94 88.3692 527.337 87.7021 524.294 86.1886C524.089 86.0879 523.885 85.9809 523.684 85.8708C522.996 85.4969 522.345 85.0598 521.739 84.5649C521.411 84.2989 521.1 84.0131 520.808 83.7091C519.289 81.9428 518.086 79.9291 517.249 77.7557C515.616 74.1433 515.033 69.7852 513.404 66.1729C514.153 65.4728 514.994 64.8788 515.905 64.4077H515.908C516.04 64.3384 516.173 64.2723 516.308 64.2094C516.953 63.9057 517.624 63.6603 518.312 63.4762C518.702 63.3724 519.096 63.2874 519.492 63.2214C519.508 63.2197 519.524 63.2166 519.539 63.2119C521.378 62.9124 523.262 63.0613 525.03 63.6462C527.617 64.5209 529.797 66.2673 531.972 67.9193C535.504 70.4079 538.892 73.0952 542.12 75.9684C543.913 77.6864 545.55 79.5744 547.478 81.1351C549.081 82.3722 550.771 83.4922 552.535 84.4863C562.972 90.704 573.411 96.9207 583.85 103.136C587.384 105.241 590.921 107.347 594.376 109.574C599.624 112.96 604.684 116.629 609.741 120.295C612.721 122.453 615.699 124.613 618.677 126.774C619.654 127.397 620.512 128.19 621.21 129.115C621.827 130.165 622.21 131.336 622.334 132.548C623.081 137.444 622.659 142.447 621.103 147.148V147.148Z" fill="#FBBEBE"/>
<path id="Vector_35" d="M529.923 111.06C528.671 116.676 522.994 120.072 520.027 125.005C516.339 131.129 517.843 138.246 519.228 145.26C516.698 147.441 514.167 149.622 511.635 151.802C510.238 153.001 508.841 154.206 507.337 155.267C505.144 156.736 502.852 158.052 500.477 159.206C498.237 160.358 495.996 161.511 493.756 162.664C491.673 163.835 489.466 164.77 487.176 165.452C482.762 166.585 478.073 165.792 473.706 164.48C473.191 164.345 472.695 164.143 472.233 163.879C471.961 163.716 471.723 163.501 471.535 163.246C471.104 162.474 470.947 161.579 471.091 160.707C471.534 153.357 473.331 146.16 475.122 139.017C476.079 134.732 477.365 130.527 478.97 126.44C480.544 122.938 482.353 119.547 484.385 116.289C486.628 112.191 489.285 108.333 492.315 104.776C493.79 103.407 495.031 101.806 495.99 100.037C497.107 97.4882 496.676 94.5649 496.903 91.7896C497.076 89.7045 497.629 87.6686 498.536 85.7827V85.7796C499.02 84.7638 499.604 83.7983 500.279 82.8973C500.584 83.6084 500.889 84.3185 501.195 85.0275C501.396 85.4932 501.595 85.9579 501.792 86.4215C502.05 87.0194 502.306 87.6152 502.56 88.2088C503.293 89.9143 504.026 91.6187 504.757 93.3221C505.547 95.4675 506.672 97.4739 508.092 99.2661C508.741 100.184 509.617 100.918 510.634 101.396C511.651 101.874 512.775 102.08 513.895 101.994C515.016 101.908 516.095 101.533 517.028 100.906C517.96 100.278 518.714 99.4192 519.215 98.4133C520.273 96.5357 521.039 94.5081 521.487 92.4001C522.109 89.8335 522.194 87.1663 521.739 84.565C520.981 79.5556 518.85 74.4392 517.302 69.7853C516.672 68.2336 516.307 66.587 516.223 64.9143C516.226 64.7264 516.245 64.539 516.279 64.3542C516.289 64.307 516.298 64.2567 516.308 64.2095C516.953 63.9058 517.624 63.6604 518.312 63.4763C518.702 63.3725 519.096 63.2875 519.492 63.2214C520.855 70.5971 522.219 77.9728 523.586 85.3485C523.618 85.5216 523.652 85.6947 523.684 85.8709C523.879 86.9281 524.077 87.9854 524.297 89.0395C524.495 89.9961 524.709 90.9495 524.949 91.8967L524.958 91.925C525.04 92.246 525.125 92.5638 525.213 92.8816L525.216 92.891C525.458 93.7595 525.729 94.6216 526.034 95.4712C527.884 100.591 531.11 105.745 529.923 111.06Z" fill="#4F97C7"/>
<path id="Vector_36" d="M605.267 189.993C605.209 191.075 605.419 192.154 605.877 193.136C607.039 195.259 609.827 195.742 612.24 195.941C626.332 197.099 640.51 196.667 654.505 194.653C655.265 194.601 656.001 194.372 656.657 193.985C658.647 192.59 657.42 189.19 655.247 188.102C653.074 187.013 650.496 187.276 648.112 186.804C645.743 186.208 643.488 185.23 641.434 183.908C636.599 181.13 631.835 178.234 627.141 175.22C624.346 173.425 621.048 171.51 617.901 172.574C609.376 175.458 605.211 180.796 605.267 189.993Z" fill="#3F3D56"/>
<path id="Vector_37" d="M501.383 83.9892V83.9923C501.361 84.1245 501.339 84.2535 501.311 84.3825C501.276 84.5965 501.235 84.8136 501.195 85.0275C500.804 87.0256 500.326 89.0143 499.775 90.9904C498.265 96.4498 496.242 101.821 494.234 107.114C488.847 121.305 483.459 135.497 478.07 149.691C476.711 153.265 475.354 156.843 473.809 160.345C473.293 161.513 472.762 162.689 472.233 163.879C470.339 168.136 468.52 172.532 467.916 177.063C467.353 180.045 467.288 183.1 467.724 186.103C468.328 189.074 470.131 191.975 472.954 193.073C474.332 193.611 476.305 194.332 475.927 195.764C475.723 196.55 474.829 196.934 474.027 197.066C472.967 197.235 471.883 197.169 470.852 196.872C469.821 196.575 468.868 196.055 468.061 195.348C466.553 194.011 465.395 191.931 463.391 191.708C462.003 191.557 460.726 192.387 459.454 192.969C454.269 195.339 448.227 193.681 442.781 191.997C443.208 189.791 445.424 188.338 447.623 187.897C449.823 187.453 452.098 187.768 454.341 187.708C455.06 187.747 455.773 187.563 456.383 187.183C456.931 186.68 457.315 186.025 457.485 185.301C458.93 181.019 460.005 176.621 460.697 172.155C461.421 167.488 461.723 162.749 462.755 158.139C463.558 154.543 464.797 151.06 465.861 147.529C467.918 140.26 469.606 132.892 470.921 125.452C471.585 122.362 472.061 119.233 472.346 116.085C472.526 113.473 472.441 110.849 472.692 108.246C473.115 104.861 473.821 101.517 474.804 98.2497C475.767 94.6845 476.728 91.1215 477.689 87.5606C479.115 82.29 480.644 76.8149 484.256 72.7179C485.511 71.2756 487.048 70.1064 488.773 69.2826C490.498 68.4588 492.374 67.998 494.285 67.9288C495.001 67.9279 495.715 68.0049 496.415 68.1585C496.531 68.1868 496.648 68.2151 496.764 68.2466C497.526 68.4459 498.258 68.7487 498.938 69.1465C500.052 68.4385 500.619 68.6871 501.358 69.779C502.006 70.9345 502.312 72.2509 502.239 73.5738C502.302 77.0655 502.015 80.5546 501.383 83.9892Z" fill="#FBBEBE"/>
<path id="Vector_38" d="M502.607 88.1616L502.56 88.2088L502.305 88.4637L499.776 90.9904L498.536 85.7827L494.285 67.9287C495.001 67.9279 495.715 68.0049 496.415 68.1584C496.445 67.9539 496.495 67.7527 496.563 67.5574L496.764 68.2465L498.205 73.149L500.933 82.4567L501.383 83.9891V83.9923L502.607 88.1616Z" fill="#4F97C7"/>
<path id="Vector_39" d="M518.661 31.2028C518.659 32.856 518.331 34.4926 517.696 36.019C517.061 37.5454 516.132 38.9317 514.961 40.0986C514.537 40.5234 514.082 40.9166 513.601 41.275C511.429 42.9119 508.784 43.7979 506.065 43.7991H490.969C487.633 43.794 484.436 42.4653 482.079 40.1047C479.722 37.7441 478.398 34.5447 478.398 31.209C478.398 27.8732 479.722 24.6738 482.079 22.3132C484.436 19.9527 487.633 18.6239 490.969 18.6188H506.065C509.401 18.6275 512.598 19.9557 514.958 22.3134C517.318 24.6712 518.649 27.8669 518.661 31.2028V31.2028Z" fill="#2F2E41"/>
<path id="Vector_40" d="M532.815 32.1516C539.94 32.1516 545.716 26.3755 545.716 19.2504C545.716 12.1253 539.94 6.34924 532.815 6.34924C525.69 6.34924 519.914 12.1253 519.914 19.2504C519.914 26.3755 525.69 32.1516 532.815 32.1516Z" fill="#2F2E41"/>
<path id="Vector_41" opacity="0.1" d="M532.5 6.34924C532.342 6.34924 532.185 6.35553 532.028 6.36118C535.366 6.48251 538.526 7.89359 540.844 10.2975C543.162 12.7015 544.457 15.9109 544.457 19.2504C544.457 22.59 543.162 25.7994 540.844 28.2033C538.526 30.6073 535.366 32.0183 532.028 32.1397C532.185 32.1453 532.342 32.1516 532.5 32.1516C535.922 32.1516 539.203 30.7924 541.623 28.3729C544.042 25.9535 545.401 22.672 545.401 19.2504C545.401 15.8288 544.042 12.5474 541.623 10.1279C539.203 7.70847 535.922 6.34924 532.5 6.34924V6.34924Z" fill="black"/>
<path id="Vector_42" opacity="0.1" d="M471.141 6.34924C471.299 6.34924 471.456 6.35553 471.613 6.36118C468.276 6.48251 465.115 7.89359 462.797 10.2975C460.479 12.7015 459.184 15.9109 459.184 19.2504C459.184 22.59 460.479 25.7994 462.797 28.2033C465.115 30.6073 468.276 32.0183 471.613 32.1397C471.456 32.1453 471.299 32.1516 471.141 32.1516C467.721 32.1486 464.443 30.788 462.026 28.3689C459.609 25.9498 458.251 22.6701 458.251 19.2504C458.251 15.8308 459.609 12.551 462.026 10.1319C464.443 7.71281 467.721 6.35225 471.141 6.34924Z" fill="black"/>
<path id="Vector_43" opacity="0.1" d="M513.601 41.275C511.429 42.9119 508.784 43.7979 506.065 43.7991H490.969C488.25 43.7978 485.605 42.9119 483.433 41.275H513.601Z" fill="black"/>
<path id="Vector_44" d="M611.085 134.756C611.085 134.756 614.338 144.128 617.314 141.632L614.942 129.382L611.085 134.756Z" fill="#FBBEBE"/>
<path id="Vector_45" d="M480.946 342.115C490.335 342.115 497.946 332.266 497.946 320.115C497.946 307.965 490.335 298.115 480.946 298.115C471.557 298.115 463.946 307.965 463.946 320.115C463.946 332.266 471.557 342.115 480.946 342.115Z" fill="#2F2E41"/>
<path id="Vector_46" d="M573.446 342.615C582.835 342.615 590.446 332.766 590.446 320.615C590.446 308.465 582.835 298.615 573.446 298.615C564.057 298.615 556.446 308.465 556.446 320.615C556.446 332.766 564.057 342.615 573.446 342.615Z" fill="#2F2E41"/>
<path id="Vector_47" d="M560.446 385.615C560.446 395.555 546.566 403.615 529.446 403.615C512.326 403.615 498.446 395.555 498.446 385.615C498.446 377.005 508.856 369.805 522.766 368.045C524.981 367.753 527.212 367.61 529.446 367.615C533.189 367.603 536.922 368.006 540.576 368.816C552.196 371.406 560.446 377.955 560.446 385.615Z" fill="#2F2E41"/>
<path id="Vector_48" d="M484.946 337.115C494.335 337.115 501.946 327.266 501.946 315.115C501.946 302.965 494.335 293.115 484.946 293.115C475.557 293.115 467.946 302.965 467.946 315.115C467.946 327.266 475.557 337.115 484.946 337.115Z" stroke="#3F3D56" stroke-miterlimit="10"/>
<path id="Vector_49" d="M577.446 337.615C586.835 337.615 594.446 327.766 594.446 315.615C594.446 303.465 586.835 293.615 577.446 293.615C568.057 293.615 560.446 303.465 560.446 315.615C560.446 327.766 568.057 337.615 577.446 337.615Z" stroke="#3F3D56" stroke-miterlimit="10"/>
<path id="Vector_50" d="M533.446 398.615C550.567 398.615 564.446 390.557 564.446 380.615C564.446 370.674 550.567 362.615 533.446 362.615C516.325 362.615 502.446 370.674 502.446 380.615C502.446 390.557 516.325 398.615 533.446 398.615Z" stroke="#3F3D56" stroke-miterlimit="10"/>
<path id="Vector_51" d="M540.946 370.316C540.954 371.573 540.482 372.786 539.626 373.707C539.222 374.149 538.73 374.502 538.183 374.744C537.636 374.986 537.044 375.113 536.446 375.115H526.446C525.214 375.073 524.049 374.544 523.205 373.644C522.362 372.745 521.909 371.548 521.946 370.316C521.941 369.341 522.226 368.386 522.766 367.574C524.979 367.263 527.211 367.109 529.446 367.115C533.193 367.103 536.929 367.533 540.576 368.396C540.823 369.005 540.948 369.658 540.946 370.316V370.316Z" fill="white"/>
<g id="Eyes">
<path id="Vector_52" d="M484.946 314.115C487.707 314.115 489.946 311.877 489.946 309.115C489.946 306.354 487.707 304.115 484.946 304.115C482.185 304.115 479.946 306.354 479.946 309.115C479.946 311.877 482.185 314.115 484.946 314.115Z" fill="white"/>
<path id="Vector_53" d="M577.946 314.115C580.707 314.115 582.946 311.877 582.946 309.115C582.946 306.354 580.707 304.115 577.946 304.115C575.185 304.115 572.946 306.354 572.946 309.115C572.946 311.877 575.185 314.115 577.946 314.115Z" fill="white"/>
</g>
<path id="Vector_54" opacity="0.3" d="M582.946 361.115C585.707 361.115 587.946 358.877 587.946 356.115C587.946 353.354 585.707 351.115 582.946 351.115C580.185 351.115 577.946 353.354 577.946 356.115C577.946 358.877 580.185 361.115 582.946 361.115Z" fill="#4F97C7"/>
<path id="Vector_55" opacity="0.3" d="M460.946 361.115C463.707 361.115 465.946 358.877 465.946 356.115C465.946 353.354 463.707 351.115 460.946 351.115C458.185 351.115 455.946 353.354 455.946 356.115C455.946 358.877 458.185 361.115 460.946 361.115Z" fill="#4F97C7"/>
</g>
</g>
<defs>
<clipPath id="clip0">
<rect width="1074.39" height="584.231" fill="white"/>
</clipPath>
</defs>
</svg>
